<svg xmlns="http://www.w3.org/2000/svg" xmlns:svg="http://www.w3.org/2000/svg" xmlns:xlink="http://www.w3.org/1999/xlink" id="Ebene_1" width="800.79" height="132.08" x="0" y="0" version="1.1" viewBox="0 0 800.79 132.08" xml:space="preserve"><metadata id="metadata213"/><defs id="defs211"><defs id="defs5"><rect id="SVGID_1_" width="790.87" height="196.26" x="1.42" y="1.08"/></defs><clipPath id="SVGID_2_"><use style="overflow:visible" id="use7" width="100%" height="100%" x="0" y="0" xlink:href="#SVGID_1_"/></clipPath></defs><style id="style2" type="text/css">.st1{fill:#fff}</style><g id="g708" transform="translate(-6.48,-6.42)"><path id="path10" d="m 271.78,42.13 c -2.98,4.64 -4.46,12.05 -4.46,22.25 0,10.2 1.51,17.61 4.52,22.25 3.01,4.64 7.42,6.96 13.21,6.96 5.87,0 10.27,-2.3 13.21,-6.9 2.93,-4.6 4.41,-12.03 4.41,-22.31 0,-10.27 -1.47,-17.71 -4.41,-22.3 -2.94,-4.59 -7.34,-6.9 -13.21,-6.9 -5.87,-0.01 -10.29,2.31 -13.27,6.95 m 32.27,-14.78 c 5.33,3.29 9.43,8.05 12.28,14.31 2.86,6.26 4.29,13.83 4.29,22.71 0,8.73 -1.43,16.24 -4.29,22.54 -2.86,6.3 -6.95,11.1 -12.28,14.42 -5.33,3.32 -11.66,4.98 -19,4.98 -7.34,0 -13.69,-1.64 -19.06,-4.92 -5.37,-3.29 -9.48,-8.07 -12.34,-14.37 -2.86,-6.3 -4.29,-13.85 -4.29,-22.65 0,-8.65 1.45,-16.12 4.35,-22.42 2.9,-6.3 7.03,-11.12 12.4,-14.48 5.37,-3.36 11.69,-5.04 18.95,-5.04 7.33,-0.01 13.66,1.64 18.99,4.92" class="st1" style="fill:#fff"/><path id="path12" d="m 363.84,73.75 c 0,-7.42 -0.9,-12.67 -2.72,-15.75 -1.81,-3.09 -4.57,-4.64 -8.28,-4.64 -2.24,0 -4.33,0.72 -6.26,2.14 -1.93,1.43 -3.63,3.34 -5.1,5.74 V 88 c 2.62,4.02 6.06,6.03 10.31,6.03 8.03,0.01 12.05,-6.75 12.05,-20.28 m 11.53,-24.04 c 3.75,5.68 5.62,13.65 5.62,23.92 0,6.26 -0.97,11.86 -2.9,16.8 -1.93,4.95 -4.73,8.83 -8.4,11.64 -3.67,2.82 -8.02,4.23 -13.04,4.23 -6.26,0 -11.32,-2.2 -15.18,-6.6 v 28.39 l -16.45,1.86 v -86.9 h 14.48 l 0.81,7.19 c 2.32,-3.01 5.04,-5.27 8.17,-6.78 3.13,-1.5 6.28,-2.26 9.44,-2.26 7.89,0 13.7,2.84 17.45,8.51 z" class="st1" style="fill:#fff"/><path id="path14" d="m 423.86,67.73 c 0,-10.19 -3.67,-15.29 -11.01,-15.29 -3.4,0 -6.04,1.26 -7.94,3.76 -1.89,2.51 -3.03,6.59 -3.42,12.22 h 22.36 v -0.69 z m 15.99,11.01 H 401.5 c 0.54,5.56 2.04,9.5 4.52,11.82 2.47,2.32 5.83,3.48 10.08,3.48 2.62,0 5.1,-0.43 7.42,-1.27 2.32,-0.85 4.83,-2.2 7.53,-4.05 l 6.84,9.27 c -6.88,5.56 -14.64,8.34 -23.29,8.34 -9.66,0 -17.07,-2.9 -22.25,-8.69 -5.18,-5.79 -7.76,-13.63 -7.76,-23.52 0,-6.26 1.1,-11.87 3.3,-16.86 2.2,-4.98 5.4,-8.9 9.62,-11.76 4.21,-2.86 9.21,-4.29 15,-4.29 8.73,0 15.53,2.74 20.39,8.23 4.87,5.48 7.3,13.13 7.3,22.94 -0.01,0.76 -0.12,2.88 -0.35,6.36" class="st1" style="fill:#fff"/><path id="path16" d="m 491.17,46.12 c 3.01,3.29 4.52,7.82 4.52,13.62 v 44.72 H 479.24 V 62.52 c 0,-3.32 -0.56,-5.66 -1.68,-7.01 -1.12,-1.35 -2.8,-2.02 -5.04,-2.02 -2.32,0 -4.42,0.72 -6.31,2.14 -1.89,1.43 -3.73,3.58 -5.5,6.43 v 42.41 H 444.26 V 43.05 h 14.25 l 1.27,7.76 c 2.55,-3.17 5.35,-5.56 8.4,-7.19 3.05,-1.62 6.51,-2.43 10.37,-2.43 5.4,0.01 9.62,1.65 12.62,4.93" class="st1" style="fill:#fff"/><path id="path18" d="m 547.78,24.92 c 4.29,1.66 8.24,4.19 11.88,7.59 l -8.23,9.5 c -2.78,-2.4 -5.61,-4.13 -8.46,-5.21 -2.86,-1.08 -5.91,-1.62 -9.15,-1.62 -3.55,0 -6.39,0.75 -8.52,2.26 -2.13,1.5 -3.19,3.65 -3.19,6.43 0,1.93 0.45,3.52 1.33,4.75 0.89,1.24 2.45,2.4 4.69,3.48 2.25,1.08 5.6,2.32 10.08,3.71 7.96,2.55 13.91,5.7 17.84,9.44 3.94,3.75 5.91,9.1 5.91,16.04 0,4.95 -1.24,9.29 -3.71,13.04 -2.47,3.75 -6.07,6.68 -10.78,8.81 -4.72,2.12 -10.24,3.19 -16.57,3.19 -6.33,0 -11.97,-1 -16.92,-3.01 -4.94,-2.01 -9.19,-4.75 -12.74,-8.23 l 8.92,-9.73 c 5.87,5.4 12.63,8.11 20.28,8.11 4.17,0 7.51,-0.97 10.02,-2.9 2.51,-1.93 3.76,-4.64 3.76,-8.11 0,-2.16 -0.45,-3.96 -1.33,-5.39 -0.89,-1.42 -2.41,-2.72 -4.57,-3.88 -2.17,-1.16 -5.3,-2.36 -9.39,-3.59 -8.73,-2.7 -14.97,-5.95 -18.71,-9.73 -3.75,-3.79 -5.62,-8.73 -5.62,-14.84 0,-4.48 1.2,-8.44 3.59,-11.87 2.4,-3.44 5.72,-6.08 9.97,-7.94 4.25,-1.86 9.07,-2.78 14.48,-2.78 5.81,-0.02 10.85,0.82 15.14,2.48" class="st1" style="fill:#fff"/><path id="path20" d="m 586.53,92.06 c 0.54,0.77 1.35,1.16 2.43,1.16 1.31,0 2.43,-0.23 3.36,-0.69 l 3.36,11.7 c -3.4,1.39 -7.11,2.09 -11.12,2.09 -4.87,0 -8.63,-1.42 -11.3,-4.23 -2.66,-2.82 -3.99,-6.9 -3.99,-12.22 V 18.6 l 16.45,-1.86 v 71.61 c 0,1.7 0.28,2.94 0.81,3.71" class="st1" style="fill:#fff"/><path id="path22" d="m 602.99,43.05 h 16.45 v 61.41 h -16.45 z m 15.35,-28.91 c 1.89,1.82 2.84,4.12 2.84,6.9 0,2.78 -0.95,5.08 -2.84,6.9 -1.89,1.82 -4.31,2.72 -7.24,2.72 -2.93,0 -5.33,-0.91 -7.19,-2.72 -1.85,-1.81 -2.78,-4.12 -2.78,-6.9 0,-2.78 0.93,-5.08 2.78,-6.9 1.86,-1.81 4.25,-2.72 7.19,-2.72 2.94,0 5.35,0.91 7.24,2.72" class="st1" style="fill:#fff"/><path id="path24" d="m 661.38,92.18 c 1.86,-1.23 3.6,-3.09 5.22,-5.56 V 59.16 c -1.62,-1.93 -3.25,-3.38 -4.87,-4.35 -1.62,-0.97 -3.52,-1.45 -5.68,-1.45 -3.79,0 -6.76,1.66 -8.92,4.98 -2.17,3.32 -3.24,8.46 -3.24,15.41 0,7.34 0.94,12.55 2.84,15.64 1.89,3.09 4.65,4.63 8.29,4.63 2.38,0.02 4.51,-0.6 6.36,-1.84 m 21.67,12.28 h -14.48 l -0.93,-7.53 c -4.33,6.26 -10.19,9.39 -17.61,9.39 -7.57,0 -13.34,-2.92 -17.32,-8.75 -3.98,-5.83 -5.97,-13.77 -5.97,-23.81 0,-6.34 1.02,-11.95 3.07,-16.86 2.04,-4.9 4.96,-8.75 8.75,-11.53 3.78,-2.78 8.23,-4.17 13.33,-4.17 2.86,0 5.55,0.56 8.05,1.68 2.51,1.12 4.73,2.61 6.66,4.46 V 16.75 l 16.45,1.85 z" class="st1" style="fill:#fff"/><path id="path26" d="m 730.21,67.73 c 0,-10.19 -3.67,-15.29 -11.01,-15.29 -3.4,0 -6.04,1.26 -7.94,3.76 -1.89,2.51 -3.03,6.59 -3.42,12.22 h 22.36 z m 15.99,11.01 h -38.36 c 0.54,5.56 2.04,9.5 4.52,11.82 2.47,2.32 5.83,3.48 10.08,3.48 2.62,0 5.1,-0.43 7.42,-1.27 2.32,-0.85 4.82,-2.2 7.53,-4.05 l 6.83,9.27 c -6.88,5.56 -14.64,8.34 -23.29,8.34 -9.66,0 -17.07,-2.9 -22.25,-8.69 -5.18,-5.79 -7.77,-13.63 -7.77,-23.52 0,-6.26 1.1,-11.87 3.3,-16.86 2.2,-4.98 5.4,-8.9 9.62,-11.76 4.21,-2.86 9.21,-4.29 15,-4.29 8.73,0 15.52,2.74 20.39,8.23 4.87,5.48 7.3,13.13 7.3,22.94 0.03,0.76 -0.09,2.88 -0.32,6.36 z" class="st1" style="fill:#fff"/><path id="path28" d="m 800.19,48.61 -6.26,9.62 c -5.02,-3.4 -9.97,-5.1 -14.83,-5.1 -2.86,0 -5.06,0.5 -6.6,1.51 -1.55,1 -2.32,2.36 -2.32,4.05 0,1.23 0.33,2.28 0.98,3.13 0.66,0.85 1.89,1.66 3.71,2.43 1.81,0.77 4.54,1.7 8.17,2.78 6.49,1.78 11.32,4.15 14.48,7.12 3.16,2.98 4.75,7.05 4.75,12.22 0,4.1 -1.18,7.64 -3.54,10.66 -2.35,3.01 -5.55,5.31 -9.56,6.9 -4.02,1.58 -8.5,2.38 -13.44,2.38 -5.17,0 -9.89,-0.79 -14.14,-2.38 -4.25,-1.58 -7.88,-3.76 -10.89,-6.55 l 8.22,-9.15 c 2.32,1.93 4.87,3.44 7.65,4.52 2.78,1.08 5.64,1.62 8.57,1.62 3.17,0 5.66,-0.6 7.48,-1.8 1.81,-1.2 2.72,-2.8 2.72,-4.8 0,-1.62 -0.35,-2.92 -1.05,-3.88 -0.69,-0.97 -1.97,-1.86 -3.82,-2.67 -1.86,-0.81 -4.75,-1.76 -8.7,-2.84 -6.18,-1.7 -10.76,-4.12 -13.73,-7.24 -2.98,-3.13 -4.46,-7.01 -4.46,-11.65 0,-3.47 1,-6.6 3.01,-9.38 2.01,-2.78 4.85,-4.96 8.52,-6.55 3.67,-1.58 7.94,-2.38 12.8,-2.38 8.69,0.02 16.1,2.49 22.28,7.43" class="st1" style="fill:#fff"/></g><g id="g792" transform="translate(-6.48,-6.42)"><g id="g86" transform="translate(10,10)"><g id="g46"><circle id="circle36" cx="124.67" cy="90.79" r="5.63" class="st1" style="fill:#fff"/><circle id="circle38" cx="140.63" cy="90.79" r="5.63" class="st1" style="fill:#fff"/><circle id="circle40" cx="156.13" cy="90.79" r="5.63" class="st1" style="fill:#fff"/><circle id="circle42" cx="171.64" cy="90.79" r="5.63" class="st1" style="fill:#fff"/><circle id="circle44" cx="187.15" cy="90.79" r="5.63" class="st1" style="fill:#fff"/></g><g id="g58"><circle id="circle48" cx="118.34" cy="78.45" r="5.63" class="st1" style="fill:#fff"/><circle id="circle50" cx="127.26" cy="65.22" r="5.63" class="st1" style="fill:#fff"/><circle id="circle52" cx="135.93" cy="52.36" r="5.63" class="st1" style="fill:#fff"/><circle id="circle54" cx="144.6" cy="39.51" r="5.63" class="st1" style="fill:#fff"/><circle id="circle56" cx="153.28" cy="26.65" r="5.63" class="st1" style="fill:#fff"/></g><g id="g68"><circle id="circle60" cx="136.19" cy="76.61" r="5.63" class="st1" style="fill:#fff"/><circle id="circle62" cx="168.54" cy="76.17" r="5.63" class="st1" style="fill:#fff"/><circle id="circle64" cx="184.72" cy="76.17" r="5.63" class="st1" style="fill:#fff"/><circle id="circle66" cx="152.37" cy="76.61" r="5.63" class="st1" style="fill:#fff"/></g><g id="g76"><circle id="circle70" cx="146.39" cy="63.32" r="5.63" class="st1" style="fill:#fff"/><circle id="circle72" cx="180.51" cy="62.43" r="5.63" class="st1" style="fill:#fff"/><circle id="circle74" cx="163.89" cy="62.87" r="5.63" class="st1" style="fill:#fff"/></g><g id="g80"><circle id="circle78" cx="155.69" cy="50.47" r="5.63" class="st1" style="fill:#fff"/></g><g id="g84"><circle id="circle82" cx="164.55" cy="37.17" r="5.63" class="st1" style="fill:#fff"/></g></g><g id="g140" transform="translate(10,10)"><g id="g98"><circle id="circle88" cx="69.59" cy="90.79" r="5.63" class="st1" style="fill:#fff"/><circle id="circle90" cx="53.64" cy="90.79" r="5.63" class="st1" style="fill:#fff"/><circle id="circle92" cx="38.13" cy="90.79" r="5.63" class="st1" style="fill:#fff"/><circle id="circle94" cx="22.62" cy="90.79" r="5.63" class="st1" style="fill:#fff"/><circle id="circle96" cx="7.11" cy="90.79" r="5.63" class="st1" style="fill:#fff"/></g><g id="g110"><circle id="circle100" cx="75.93" cy="78.45" r="5.63" class="st1" style="fill:#fff"/><circle id="circle102" cx="67.01" cy="65.22" r="5.63" class="st1" style="fill:#fff"/><circle id="circle104" cx="58.34" cy="52.36" r="5.63" class="st1" style="fill:#fff"/><circle id="circle106" cx="49.66" cy="39.51" r="5.63" class="st1" style="fill:#fff"/><circle id="circle108" cx="40.99" cy="26.65" r="5.63" class="st1" style="fill:#fff"/></g><g id="g120"><circle id="circle112" cx="58.07" cy="76.61" r="5.63" class="st1" style="fill:#fff"/><circle id="circle114" cx="25.73" cy="76.17" r="5.63" class="st1" style="fill:#fff"/><circle id="circle116" cx="9.55" cy="76.17" r="5.63" class="st1" style="fill:#fff"/><circle id="circle118" cx="41.9" cy="76.61" r="5.63" class="st1" style="fill:#fff"/></g><g id="g128"><circle id="circle122" cx="47.88" cy="63.32" r="5.63" class="st1" style="fill:#fff"/><circle id="circle124" cx="13.76" cy="62.43" r="5.63" class="st1" style="fill:#fff"/><circle id="circle126" cx="30.38" cy="62.87" r="5.63" class="st1" style="fill:#fff"/></g><g id="g134"><circle id="circle130" cx="38.58" cy="50.47" r="5.63" class="st1" style="fill:#fff"/><circle id="circle132" cx="21.07" cy="49.14" r="5.63" class="st1" style="fill:#fff"/></g><g id="g138"><circle id="circle136" cx="29.71" cy="37.17" r="5.63" class="st1" style="fill:#fff"/></g></g><g id="g194" transform="translate(10,10)"><g id="g152"><circle id="circle142" cx="104.26" cy="69.86" r="5.63" class="st1" style="fill:#fff"/><circle id="circle144" cx="111.62" cy="55.7" r="5.63" class="st1" style="fill:#fff"/><circle id="circle146" cx="118.77" cy="41.94" r="5.63" class="st1" style="fill:#fff"/><circle id="circle148" cx="125.92" cy="28.18" r="5.63" class="st1" style="fill:#fff"/><circle id="circle150" cx="133.07" cy="14.42" r="5.63" class="st1" style="fill:#fff"/></g><g id="g164"><circle id="circle154" cx="90.38" cy="69.78" r="5.63" class="st1" style="fill:#fff"/><circle id="circle156" cx="82.76" cy="55.77" r="5.63" class="st1" style="fill:#fff"/><circle id="circle158" cx="75.35" cy="42.14" r="5.63" class="st1" style="fill:#fff"/><circle id="circle160" cx="67.95" cy="28.52" r="5.63" class="st1" style="fill:#fff"/><circle id="circle162" cx="60.54" cy="14.89" r="5.63" class="st1" style="fill:#fff"/></g><g id="g174"><circle id="circle166" cx="96.99" cy="53.09" r="5.63" class="st1" style="fill:#fff"/><circle id="circle168" cx="111.52" cy="24.19" r="5.63" class="st1" style="fill:#fff"/><circle id="circle170" cx="118.98" cy="9.83" r="5.63" class="st1" style="fill:#fff"/><circle id="circle172" cx="104.45" cy="38.74" r="5.63" class="st1" style="fill:#fff"/></g><g id="g182"><circle id="circle176" cx="89.9" cy="37.92" r="5.63" class="st1" style="fill:#fff"/><circle id="circle178" cx="104.84" cy="7.23" r="5.63" class="st1" style="fill:#fff"/><circle id="circle180" cx="97.57" cy="22.18" r="5.63" class="st1" style="fill:#fff"/></g><g id="g188"><circle id="circle184" cx="82.78" cy="23.74" r="5.63" class="st1" style="fill:#fff"/><circle id="circle186" cx="89.68" cy="7.22" r="5.63" class="st1" style="fill:#fff"/></g><g id="g192"><circle id="circle190" cx="75.08" cy="9.74" r="5.63" class="st1" style="fill:#fff"/></g></g><circle id="circle196" cx="183.42" cy="59.14" r="5.63" class="st1" style="fill:#fff"/><path id="path198" d="M 121.46,133.5 H 93.29 c -3.1,0 -5.63,-2.54 -5.63,-5.63 v 0 c 0,-3.1 2.54,-5.63 5.63,-5.63 h 28.17 c 3.1,0 5.63,2.54 5.63,5.63 v 0 c 0.01,3.09 -2.53,5.63 -5.63,5.63 z" class="st1" style="fill:#fff"/></g></svg>